<svg xmlns="http://www.w3.org/2000/svg" viewBox="0 0 100 100" width="50px" height="50px"><path fill="#c7ede6" d="M88.724,55.548c0.3-0.616,0.566-1.264,0.796-1.943c2.633-7.77-1.349-17.078-9.733-19.325c-0.906-11.384-8.906-19.193-17.941-20.526C51.505,12.23,42.032,18.799,38.88,29.24c-3.799-1.346-7.501-1.182-10.99,0.857c-1.583,0.732-3.031,1.812-4.33,3.233c-1.907,2.086-3.147,4.719-3.652,7.495c-0.748,0.118-1.483,0.236-2.176,0.484c-4.04,1.449-6.589,4.431-7.288,8.923c-0.435,2.797,0.443,5.587,0.933,6.714c1.935,4.455,6.422,6.98,10.981,6.312c0.227-0.033,0.557,0.069,0.752,0.233c0.241,7.12,3.698,13.417,8.884,17.014c8.321,5.772,19.027,3.994,25.781-3.921c2.894,2.96,6.338,4.398,10.384,3.876c4.023-0.519,7.147-2.739,9.426-6.349c1.053,0.283,2.051,0.691,3.083,0.804c4.042,0.442,7.324-1.165,9.732-4.8c0.922-1.391,1.793-3.194,1.793-6.354C92.194,60.505,90.901,57.538,88.724,55.548z"></path><path fill="#fff" d="M18.389 47.584H8.359c-.276 0-.5-.224-.5-.5s.224-.5.5-.5h10.03c.276 0 .5.224.5.5S18.666 47.584 18.389 47.584zM21.27 47.584h-1.445c-.276 0-.5-.224-.5-.5s.224-.5.5-.5h1.445c.276 0 .5.224.5.5S21.547 47.584 21.27 47.584zM25.325 47.584h-2.546c-.276 0-.5-.224-.5-.5s.224-.5.5-.5h2.546c.276 0 .5.224.5.5S25.601 47.584 25.325 47.584zM25.325 49.449h-9.616c-.276 0-.5-.224-.5-.5s.224-.5.5-.5h9.616c.276 0 .5.224.5.5S25.601 49.449 25.325 49.449zM13.977 49.449h-.58c-.276 0-.5-.224-.5-.5s.224-.5.5-.5h.58c.276 0 .5.224.5.5S14.254 49.449 13.977 49.449zM11.6 49.449h-1.456c-.276 0-.5-.224-.5-.5s.224-.5.5-.5H11.6c.276 0 .5.224.5.5S11.877 49.449 11.6 49.449zM20.736 45.719h-5.027c-.276 0-.5-.224-.5-.5s.224-.5.5-.5h5.027c.276 0 .5.224.5.5S21.012 45.719 20.736 45.719zM20.736 43.854h-1.257c-.276 0-.5-.224-.5-.5s.224-.5.5-.5h1.257c.276 0 .5.224.5.5S21.012 43.854 20.736 43.854zM17.467 51.314h-1.759c-.276 0-.5-.224-.5-.5s.224-.5.5-.5h1.759c.276 0 .5.224.5.5S17.744 51.314 17.467 51.314zM74.415 25.263h-10.03c-.276 0-.5-.224-.5-.5s.224-.5.5-.5h10.03c.276 0 .5.224.5.5S74.691 25.263 74.415 25.263zM77.297 25.263H75.85c-.276 0-.5-.224-.5-.5s.224-.5.5-.5h1.446c.276 0 .5.224.5.5S77.573 25.263 77.297 25.263zM81.351 25.263h-2.546c-.276 0-.5-.224-.5-.5s.224-.5.5-.5h2.546c.276 0 .5.224.5.5S81.628 25.263 81.351 25.263zM81.351 27.128h-9.617c-.276 0-.5-.224-.5-.5s.224-.5.5-.5h9.617c.276 0 .5.224.5.5S81.628 27.128 81.351 27.128zM70.003 27.128h-.58c-.276 0-.5-.224-.5-.5s.224-.5.5-.5h.58c.276 0 .5.224.5.5S70.279 27.128 70.003 27.128zM67.626 27.128H66.17c-.276 0-.5-.224-.5-.5s.224-.5.5-.5h1.456c.276 0 .5.224.5.5S67.902 27.128 67.626 27.128zM76.762 23.399h-5.028c-.276 0-.5-.224-.5-.5s.224-.5.5-.5h5.028c.276 0 .5.224.5.5S77.039 23.399 76.762 23.399zM76.762 21.534h-1.258c-.276 0-.5-.224-.5-.5s.224-.5.5-.5h1.258c.276 0 .5.224.5.5S77.039 21.534 76.762 21.534zM73.493 28.993h-1.759c-.276 0-.5-.224-.5-.5s.224-.5.5-.5h1.759c.276 0 .5.224.5.5S73.769 28.993 73.493 28.993z"></path><path fill="#fdfcef" d="M74.084,59.257c0,0,10.616,0,10.681,0c2.452,0,4.439-1.987,4.439-4.439c0-2.139-1.513-3.924-3.527-4.344c0.023-0.187,0.039-0.377,0.039-0.57c0-2.539-2.058-4.598-4.597-4.598c-1.499,0-2.827,0.721-3.666,1.831c-0.215-2.826-2.739-5.007-5.693-4.646c-2.16,0.264-3.947,1.934-4.344,4.073c-0.127,0.686-0.114,1.352,0.013,1.977c-0.579-0.624-1.403-1.016-2.322-1.016c-1.68,0-3.052,1.308-3.16,2.961c-0.763-0.169-1.593-0.158-2.467,0.17c-1.671,0.627-2.861,2.2-2.93,3.983c-0.099,2.533,1.925,4.617,4.435,4.617c0.191,0,0.861,0,1.015,0h9.218"></path><path fill="#472b29" d="M84.764,59.757H74.084c-0.276,0-0.5-0.224-0.5-0.5s0.224-0.5,0.5-0.5h10.681c2.172,0,3.939-1.768,3.939-3.939c0-1.854-1.316-3.476-3.13-3.854c-0.255-0.053-0.426-0.293-0.394-0.552c0.021-0.167,0.035-0.336,0.035-0.508c0-2.26-1.838-4.098-4.097-4.098c-1.292,0-2.483,0.595-3.267,1.633c-0.126,0.165-0.343,0.237-0.54,0.178c-0.2-0.059-0.342-0.234-0.358-0.441c-0.094-1.238-0.7-2.401-1.663-3.19c-0.973-0.797-2.208-1.148-3.471-0.997c-1.946,0.238-3.556,1.746-3.913,3.669c-0.111,0.599-0.107,1.199,0.012,1.785c0.044,0.22-0.062,0.442-0.262,0.544c-0.196,0.104-0.441,0.061-0.595-0.104c-0.513-0.552-1.208-0.856-1.956-0.856c-1.4,0-2.568,1.096-2.66,2.494c-0.01,0.146-0.082,0.28-0.199,0.368c-0.116,0.087-0.266,0.118-0.408,0.088c-0.753-0.167-1.469-0.118-2.184,0.149c-1.498,0.562-2.546,1.983-2.605,3.535c-0.043,1.084,0.347,2.109,1.097,2.889c0.749,0.779,1.758,1.209,2.839,1.209h10.232c0.276,0,0.5,0.224,0.5,0.5s-0.224,0.5-0.5,0.5H60.985c-1.355,0-2.62-0.538-3.56-1.516c-0.94-0.977-1.429-2.263-1.376-3.621c0.076-1.948,1.384-3.729,3.254-4.432c0.723-0.271,1.468-0.36,2.222-0.279c0.362-1.655,1.842-2.885,3.581-2.885c0.604,0,1.194,0.151,1.721,0.432c0.004-0.327,0.036-0.655,0.098-0.983c0.436-2.347,2.399-4.188,4.774-4.478c1.535-0.19,3.04,0.243,4.226,1.216c0.899,0.737,1.544,1.742,1.847,2.851c0.919-0.808,2.095-1.256,3.348-1.256c2.811,0,5.097,2.287,5.097,5.098c0,0.064-0.002,0.128-0.004,0.192c2.048,0.628,3.492,2.547,3.492,4.722C89.704,57.542,87.488,59.757,84.764,59.757z"></path><path fill="#fdfcef" d="M71.511,49.479c-1.642-0.108-3.055,1.026-3.157,2.533c-0.013,0.187-0.004,0.371,0.023,0.55c-0.317-0.358-0.786-0.6-1.324-0.636c-0.985-0.065-1.836,0.586-1.959,1.471c-0.179-0.049-0.366-0.082-0.56-0.095c-1.437-0.094-2.674,0.898-2.762,2.216"></path><path fill="#472b29" d="M61.773,55.768c-0.005,0-0.011,0-0.017-0.001c-0.138-0.009-0.242-0.128-0.232-0.266c0.096-1.454,1.43-2.562,3.027-2.448c0.117,0.007,0.235,0.022,0.353,0.044c0.26-0.878,1.167-1.502,2.166-1.42c0.371,0.023,0.728,0.141,1.034,0.331c0-0.004,0-0.009,0-0.013c0.111-1.644,1.647-2.909,3.424-2.766c0.138,0.009,0.242,0.128,0.232,0.266c-0.008,0.138-0.103,0.261-0.266,0.232c-1.48-0.083-2.799,0.933-2.892,2.3c-0.01,0.168-0.003,0.335,0.021,0.496c0.017,0.11-0.041,0.218-0.141,0.265c-0.102,0.046-0.221,0.021-0.294-0.061c-0.284-0.322-0.705-0.523-1.153-0.553c-0.855-0.042-1.589,0.498-1.694,1.256c-0.011,0.071-0.051,0.135-0.11,0.175s-0.136,0.051-0.203,0.032c-0.17-0.046-0.341-0.075-0.511-0.087c-1.303-0.074-2.418,0.806-2.496,1.983C62.013,55.667,61.904,55.768,61.773,55.768z"></path><path fill="#fdfcef" d="M86.562,50.994c-1.543-0.727-3.327-0.213-3.985,1.15c-0.082,0.169-0.142,0.344-0.182,0.521"></path><path fill="#472b29" d="M82.394,52.915c-0.018,0-0.037-0.002-0.056-0.006c-0.134-0.031-0.219-0.165-0.188-0.3c0.045-0.196,0.112-0.389,0.201-0.573c0.717-1.484,2.653-2.051,4.317-1.269c0.125,0.06,0.179,0.208,0.12,0.333c-0.06,0.126-0.21,0.176-0.333,0.12c-1.418-0.671-3.057-0.205-3.653,1.032c-0.073,0.15-0.128,0.308-0.164,0.468C82.612,52.835,82.508,52.915,82.394,52.915z"></path><path fill="#fff" d="M73.073 25.417h-9.965c-.276 0-.5-.224-.5-.5s.224-.5.5-.5h9.965c.276 0 .5.224.5.5S73.349 25.417 73.073 25.417zM75.935 25.417H74.5c-.276 0-.5-.224-.5-.5s.224-.5.5-.5h1.436c.276 0 .5.224.5.5S76.212 25.417 75.935 25.417zM79.964 25.417h-2.529c-.276 0-.5-.224-.5-.5s.224-.5.5-.5h2.529c.276 0 .5.224.5.5S80.24 25.417 79.964 25.417zM79.964 27.269H70.41c-.276 0-.5-.224-.5-.5s.224-.5.5-.5h9.554c.276 0 .5.224.5.5S80.24 27.269 79.964 27.269zM68.69 27.269h-.576c-.276 0-.5-.224-.5-.5s.224-.5.5-.5h.576c.276 0 .5.224.5.5S68.966 27.269 68.69 27.269zM66.329 27.269h-1.446c-.276 0-.5-.224-.5-.5s.224-.5.5-.5h1.446c.276 0 .5.224.5.5S66.605 27.269 66.329 27.269zM75.405 23.564H70.41c-.276 0-.5-.224-.5-.5s.224-.5.5-.5h4.995c.276 0 .5.224.5.5S75.681 23.564 75.405 23.564zM75.405 21.71h-1.249c-.276 0-.5-.224-.5-.5s.224-.5.5-.5h1.249c.276 0 .5.224.5.5S75.681 21.71 75.405 21.71zM72.158 29.122H70.41c-.276 0-.5-.224-.5-.5s.224-.5.5-.5h1.748c.276 0 .5.224.5.5S72.434 29.122 72.158 29.122z"></path><path fill="#fdfcee" d="M75.076,64.611V36.433c0-2.403-1.605-4.369-3.568-4.369H31.074c-1.962,0-3.568,1.966-3.568,4.369v28.178"></path><path fill="#472b29" d="M75.076,65.311c-0.387,0-0.7-0.313-0.7-0.7V36.433c0-2.023-1.286-3.669-2.867-3.669H31.074c-1.581,0-2.867,1.646-2.867,3.669v28.178c0,0.387-0.313,0.7-0.7,0.7s-0.7-0.313-0.7-0.7V36.433c0-2.795,1.914-5.069,4.268-5.069h40.435c2.354,0,4.268,2.274,4.268,5.069v28.178C75.776,64.998,75.463,65.311,75.076,65.311z"></path><path fill="#c0e5e4" d="M72.572 39.342L72.572 62.108 30.636 62.108 30.636 59.21 30.636 50.104 30.636 36.445 71.673 36.445 72.572 36.445z"></path><path fill="#cdcbbd" d="M25.003,64.611v1.878c0,1.721,1.774,3.13,3.943,3.13h44.69c2.169,0,3.943-1.408,3.943-3.13v-1.878H25.003z"></path><path fill="#472b29" d="M73.636 70.319h-44.69c-2.561 0-4.644-1.719-4.644-3.83v-1.878c0-.387.313-.7.7-.7H77.58c.387 0 .7.313.7.7v1.878C78.28 68.6 76.197 70.319 73.636 70.319zM25.703 65.311v1.178c0 1.317 1.485 2.43 3.243 2.43h44.69c1.758 0 3.243-1.112 3.243-2.43v-1.178H25.703zM51.604 34.567h-1.252c-.172 0-.313-.141-.313-.313l0 0c0-.172.141-.313.313-.313h1.252c.172 0 .313.141.313.313l0 0C51.917 34.427 51.776 34.567 51.604 34.567z"></path><path fill="#472b29" d="M53.482 67.741H49.1c-.172 0-.313-.141-.313-.313l0 0c0-.172.141-.313.313-.313h4.381c.172 0 .313.141.313.313l0 0C53.795 67.6 53.654 67.741 53.482 67.741zM72.259 62.144H30.323c-.193 0-.35-.156-.35-.35v-2.504c0-.193.156-.35.35-.35s.35.156.35.35v2.154H71.91V39.261c0-.193.156-.35.35-.35s.35.156.35.35v22.533C72.609 61.988 72.453 62.144 72.259 62.144zM30.323 53.381c-.193 0-.35-.156-.35-.35V36.132c0-.193.156-.35.35-.35h41.937c.193 0 .35.156.35.35s-.156.35-.35.35H30.673v16.55C30.673 53.225 30.516 53.381 30.323 53.381zM30.323 57.763c-.193 0-.35-.156-.35-.35V54.91c0-.193.156-.35.35-.35s.35.156.35.35v2.504C30.673 57.607 30.516 57.763 30.323 57.763z"></path><path fill="#fdfcef" d="M35.912,71.358c1.71,0,3.194,0,3.215,0c1.916,0,3.469-1.52,3.469-3.396c0-1.636-1.182-3.001-2.756-3.323c0.018-0.143,0.031-0.288,0.031-0.436c0-1.942-1.609-3.517-3.593-3.517c-1.172,0-2.209,0.551-2.865,1.401c-0.168-2.162-2.141-3.83-4.45-3.554c-1.688,0.202-3.084,1.479-3.395,3.116c-0.1,0.525-0.089,1.034,0.01,1.512c-0.453-0.477-1.097-0.777-1.814-0.777c-1.313,0-2.385,1.001-2.47,2.265c-0.596-0.129-1.245-0.121-1.928,0.13c-1.306,0.48-2.236,1.683-2.29,3.047c-0.077,1.937,1.504,3.532,3.467,3.532c0.149,0,0.673,0,0.794,0h7.204 M30.03,71.358h0.327"></path><path fill="#472b29" d="M39.127,71.858h-3.215c-0.276,0-0.5-0.224-0.5-0.5s0.224-0.5,0.5-0.5h3.215c1.638,0,2.97-1.299,2.97-2.896c0-1.362-0.991-2.554-2.357-2.833c-0.257-0.053-0.429-0.295-0.396-0.555c0.016-0.121,0.027-0.245,0.027-0.371c0-1.663-1.388-3.017-3.094-3.017c-0.978,0-1.878,0.439-2.47,1.206c-0.125,0.164-0.338,0.231-0.539,0.174c-0.198-0.06-0.339-0.234-0.354-0.441c-0.071-0.912-0.506-1.74-1.227-2.331c-0.743-0.61-1.688-0.879-2.665-0.765c-1.476,0.177-2.694,1.292-2.964,2.712c-0.084,0.443-0.081,0.887,0.009,1.317c0.046,0.219-0.06,0.441-0.257,0.545c-0.196,0.104-0.44,0.064-0.595-0.098c-0.381-0.401-0.897-0.622-1.452-0.622c-1.038,0-1.904,0.79-1.971,1.798c-0.01,0.145-0.082,0.278-0.198,0.366c-0.115,0.087-0.264,0.12-0.406,0.089c-0.57-0.121-1.109-0.087-1.651,0.112c-1.128,0.414-1.917,1.458-1.962,2.598c-0.031,0.781,0.253,1.525,0.8,2.095c0.567,0.591,1.337,0.916,2.167,0.916h7.998c0.276,0,0.5,0.224,0.5,0.5s-0.224,0.5-0.5,0.5h-7.998c-1.089,0-2.142-0.446-2.889-1.224c-0.737-0.767-1.12-1.771-1.078-2.827c0.062-1.539,1.114-2.944,2.617-3.497c0.548-0.201,1.107-0.279,1.689-0.229c0.331-1.268,1.506-2.197,2.882-2.197c0.431,0,0.854,0.094,1.24,0.269c0.011-0.199,0.034-0.398,0.072-0.597c0.35-1.844,1.924-3.291,3.827-3.519c1.245-0.152,2.463,0.199,3.419,0.983c0.667,0.548,1.146,1.255,1.398,2.048c0.717-0.568,1.609-0.882,2.557-0.882c2.257,0,4.094,1.802,4.094,4.017c0,0.02,0,0.039-0.001,0.06c1.604,0.52,2.727,2.012,2.727,3.699C43.096,70.111,41.315,71.858,39.127,71.858z M30.357,71.858H30.03c-0.276,0-0.5-0.224-0.5-0.5s0.224-0.5,0.5-0.5h0.327c0.276,0,0.5,0.224,0.5,0.5S30.633,71.858,30.357,71.858z"></path><path fill="#472b29" d="M37.576 66.566c-.019 0-.037-.002-.057-.007-.134-.03-.218-.165-.187-.3.035-.152.087-.3.155-.438.555-1.122 2.084-1.539 3.409-.925.126.058.181.206.122.331-.058.126-.208.18-.331.122-1.08-.496-2.315-.188-2.751.692-.052.104-.091.216-.118.331C37.793 66.488 37.69 66.566 37.576 66.566zM32.892 71.858h-1.006c-.276 0-.5-.224-.5-.5s.224-.5.5-.5h1.006c.276 0 .5.224.5.5S33.169 71.858 32.892 71.858z"></path><path fill="#ef8f70" d="M47.473,47.284l-4.186-4.186c-0.07-0.07-0.167-0.109-0.266-0.105c-0.099,0.003-0.192,0.048-0.257,0.123c-0.826,0.951-1.49,2.019-1.976,3.175c-0.5,1.19-0.8,2.45-0.89,3.744c-0.007,0.098,0.028,0.196,0.095,0.268c0.068,0.072,0.163,0.114,0.262,0.114h5.919c0.176,0,0.329-0.132,0.354-0.307c0.124-0.852,0.463-1.667,0.978-2.359C47.612,47.609,47.598,47.408,47.473,47.284z"></path><path fill="#472b29" d="M46.174,50.667h-5.919c-0.168,0-0.33-0.07-0.444-0.193c-0.115-0.123-0.174-0.289-0.162-0.456c0.093-1.321,0.398-2.607,0.909-3.823c0.495-1.18,1.174-2.271,2.018-3.242c0.11-0.127,0.27-0.203,0.438-0.208c0.169-0.004,0.331,0.058,0.451,0.178l4.186,4.186c0,0,0,0,0.001,0.001c0.211,0.213,0.235,0.553,0.057,0.792c-0.491,0.659-0.813,1.436-0.932,2.245C46.733,50.442,46.474,50.667,46.174,50.667z M43.035,43.244c-0.032-0.014-0.062,0.014-0.082,0.036c-0.808,0.932-1.459,1.978-1.934,3.107c-0.489,1.166-0.783,2.398-0.872,3.665c-0.002,0.028,0.01,0.058,0.029,0.079c0.021,0.022,0.05,0.035,0.079,0.035h5.919c0.053,0,0.1-0.041,0.107-0.094c0.13-0.891,0.484-1.746,1.025-2.473c0.031-0.041,0.025-0.103-0.012-0.141l-4.185-4.185C43.09,43.254,43.063,43.244,43.035,43.244z"></path><path fill="#78a0cf" d="M62.913,50.035c-0.09-1.294-0.39-2.553-0.89-3.744c-0.486-1.156-1.151-2.224-1.976-3.175c-0.065-0.074-0.158-0.119-0.257-0.123c-0.099-0.004-0.196,0.035-0.266,0.105l-4.186,4.185c-0.125,0.125-0.14,0.325-0.034,0.466c0.516,0.692,0.854,1.508,0.978,2.36c0.026,0.175,0.178,0.307,0.354,0.307h5.919c0.099,0,0.195-0.042,0.262-0.114C62.886,50.23,62.92,50.133,62.913,50.035z"></path><path fill="#472b29" d="M62.556,50.667h-5.919c-0.3,0-0.559-0.225-0.602-0.521c-0.118-0.81-0.44-1.586-0.932-2.246c-0.179-0.24-0.153-0.58,0.059-0.792l4.185-4.186c0.12-0.12,0.282-0.18,0.453-0.178c0.166,0.005,0.325,0.081,0.436,0.208c0.844,0.972,1.522,2.062,2.018,3.242c0.511,1.213,0.816,2.5,0.909,3.823l0,0c0.012,0.167-0.047,0.333-0.162,0.456C62.886,50.596,62.724,50.667,62.556,50.667z M59.779,43.244c-0.03,0-0.058,0.011-0.078,0.031l-4.185,4.186c-0.037,0.037-0.042,0.099-0.012,0.14c0.541,0.727,0.896,1.581,1.025,2.473c0.008,0.053,0.055,0.094,0.107,0.094h5.919c0.029,0,0.059-0.013,0.079-0.035c0.02-0.021,0.031-0.051,0.029-0.079l0,0c-0.09-1.269-0.383-2.502-0.872-3.665c-0.475-1.13-1.126-2.176-1.934-3.107C59.839,43.257,59.803,43.232,59.779,43.244z"></path><path fill="#00a5a5" d="M62.739,51.302c-0.068-0.072-0.163-0.114-0.262-0.114h-5.919c-0.176,0-0.329,0.132-0.354,0.307c-0.124,0.852-0.463,1.667-0.978,2.36c-0.105,0.141-0.09,0.341,0.034,0.466l4.186,4.186c0.067,0.067,0.159,0.105,0.254,0.105c0.004,0,0.008,0,0.012,0c0.099-0.003,0.192-0.048,0.257-0.123c0.825-0.951,1.49-2.019,1.976-3.175c0.5-1.19,0.8-2.45,0.89-3.744C62.84,51.472,62.806,51.374,62.739,51.302z"></path><path fill="#472b29" d="M59.714,58.861c-0.18,0-0.335-0.065-0.446-0.179l-4.185-4.185c-0.212-0.212-0.237-0.552-0.059-0.792c0.491-0.66,0.813-1.437,0.932-2.246c0.043-0.297,0.302-0.521,0.602-0.521h5.919c0.167,0,0.329,0.07,0.444,0.192c0.001,0.001,0.002,0.002,0.002,0.002c0.113,0.124,0.172,0.29,0.16,0.455c-0.093,1.322-0.398,2.609-0.908,3.823c-0.497,1.181-1.176,2.271-2.019,3.242c-0.11,0.127-0.27,0.203-0.438,0.208C59.716,58.861,59.715,58.861,59.714,58.861z M56.557,51.438c-0.053,0-0.1,0.041-0.107,0.094c-0.13,0.891-0.484,1.746-1.025,2.473c-0.03,0.041-0.025,0.103,0.012,0.14l4.186,4.186c0.021,0.021,0.048,0.032,0.076,0.032c0.033-0.002,0.062-0.016,0.081-0.037c0.808-0.931,1.458-1.977,1.935-3.107c0.488-1.164,0.781-2.396,0.871-3.665c0.002-0.027-0.009-0.058-0.028-0.079c-0.021-0.022-0.051-0.035-0.08-0.035H56.557z"></path><path fill="#f1bc19" d="M47.587,53.855c-0.516-0.692-0.854-1.508-0.978-2.36c-0.026-0.175-0.178-0.307-0.354-0.307h-5.919c-0.099,0-0.195,0.042-0.262,0.114c-0.067,0.072-0.102,0.17-0.095,0.268c0.09,1.294,0.39,2.553,0.89,3.744c0.486,1.156,1.15,2.224,1.976,3.175c0.065,0.074,0.158,0.119,0.257,0.123c0.004,0,0.008,0,0.012,0c0.095,0,0.186-0.038,0.254-0.105l4.186-4.186C47.678,54.196,47.692,53.996,47.587,53.855z"></path><path fill="#472b29" d="M43.114,58.862c-0.188-0.006-0.348-0.082-0.458-0.209c-0.844-0.972-1.522-2.062-2.018-3.242c-0.511-1.213-0.816-2.5-0.909-3.823c-0.012-0.165,0.047-0.331,0.16-0.454c0.117-0.125,0.279-0.195,0.446-0.195h5.919c0.3,0,0.559,0.225,0.602,0.521c0.118,0.81,0.44,1.586,0.932,2.246l0,0c0.179,0.24,0.153,0.58-0.059,0.792l-4.186,4.186C43.432,58.796,43.275,58.862,43.114,58.862z M40.336,51.438c-0.03,0-0.06,0.013-0.081,0.036c-0.018,0.02-0.029,0.05-0.027,0.078c0.09,1.269,0.383,2.502,0.872,3.665c0.475,1.13,1.126,2.176,1.934,3.107c0.021,0.021,0.053,0.041,0.079,0.036c0.032,0,0.059-0.011,0.077-0.03l4.187-4.187c0.037-0.037,0.042-0.099,0.012-0.14l0,0c-0.541-0.727-0.896-1.581-1.025-2.473c-0.008-0.053-0.055-0.094-0.107-0.094H40.336z"></path><path fill="#a1a1ca" d="M59.092,41.846c-0.951-0.826-2.019-1.49-3.175-1.976c-1.19-0.5-2.45-0.8-3.744-0.89c-0.098-0.007-0.196,0.028-0.268,0.095c-0.072,0.068-0.114,0.163-0.114,0.262v5.919c0,0.176,0.132,0.329,0.307,0.354c0.852,0.124,1.667,0.463,2.36,0.978c0.063,0.047,0.138,0.07,0.212,0.07c0.092,0,0.185-0.035,0.254-0.104l4.186-4.186c0.07-0.07,0.108-0.167,0.105-0.266C59.211,42.005,59.166,41.911,59.092,41.846z"></path><path fill="#472b29" d="M54.671,46.909c-0.132,0-0.257-0.041-0.361-0.118c-0.66-0.492-1.437-0.814-2.247-0.933c-0.297-0.043-0.521-0.302-0.521-0.602v-5.919c0-0.168,0.07-0.33,0.192-0.444c0.124-0.115,0.288-0.177,0.457-0.162c1.323,0.093,2.609,0.398,3.822,0.909c1.18,0.495,2.271,1.174,3.243,2.018l0,0c0.125,0.108,0.201,0.268,0.208,0.436c0.007,0.167-0.058,0.332-0.177,0.452l-4.187,4.187C54.985,46.846,54.833,46.909,54.671,46.909z M52.149,39.229c-0.027,0-0.054,0.011-0.073,0.029c-0.021,0.02-0.034,0.05-0.034,0.079v5.919c0,0.053,0.041,0.1,0.093,0.107c0.893,0.13,1.747,0.484,2.473,1.025c0.039,0.029,0.104,0.026,0.142-0.012l4.185-4.185c0.021-0.021,0.032-0.051,0.031-0.08c-0.001-0.03-0.015-0.06-0.036-0.078c-0.932-0.809-1.978-1.459-3.108-1.934c-1.163-0.489-2.396-0.782-3.664-0.872C52.154,39.229,52.151,39.229,52.149,39.229z"></path><path fill="#ee3e54" d="M50.906,39.075c-0.072-0.067-0.17-0.102-0.268-0.095c-1.294,0.09-2.553,0.39-3.744,0.89c-1.156,0.486-2.224,1.15-3.175,1.976c-0.074,0.065-0.119,0.158-0.123,0.257c-0.003,0.099,0.035,0.196,0.105,0.266l4.186,4.186c0.069,0.069,0.161,0.104,0.254,0.104c0.075,0,0.149-0.023,0.212-0.07c0.692-0.516,1.508-0.854,2.359-0.978c0.175-0.026,0.307-0.178,0.307-0.354v-5.919C51.02,39.238,50.979,39.143,50.906,39.075z"></path><path fill="#472b29" d="M48.141,46.909c-0.162,0-0.314-0.062-0.43-0.176l-4.187-4.187c-0.12-0.121-0.185-0.286-0.178-0.453c0.007-0.169,0.083-0.328,0.21-0.437c0.97-0.843,2.061-1.521,3.241-2.017c1.216-0.511,2.502-0.816,3.822-0.909c0.162-0.015,0.333,0.047,0.457,0.162c0.122,0.114,0.192,0.276,0.192,0.444v5.919c0,0.3-0.224,0.559-0.521,0.602c-0.811,0.118-1.587,0.44-2.246,0.932C48.398,46.868,48.273,46.909,48.141,46.909z M50.663,39.229c-0.003,0-0.005,0-0.007,0c-1.266,0.089-2.498,0.383-3.664,0.872c-1.131,0.475-2.177,1.126-3.107,1.934c-0.023,0.02-0.036,0.048-0.037,0.078c-0.001,0.029,0.011,0.059,0.032,0.081l4.185,4.185c0.034,0.035,0.1,0.04,0.142,0.01c0.725-0.54,1.579-0.895,2.472-1.024c0.052-0.008,0.093-0.055,0.093-0.107v-5.919c0-0.029-0.013-0.06-0.034-0.079C50.716,39.24,50.689,39.229,50.663,39.229z"></path><path fill="#7e7f99" d="M51.406 47.711999999999996A2.761 2.761 0 1 0 51.406 53.234A2.761 2.761 0 1 0 51.406 47.711999999999996Z"></path><path fill="#472b29" d="M51.406,53.484c-1.66,0-3.011-1.351-3.011-3.011s1.351-3.011,3.011-3.011s3.011,1.351,3.011,3.011S53.066,53.484,51.406,53.484z M51.406,47.962c-1.385,0-2.511,1.126-2.511,2.511s1.126,2.511,2.511,2.511s2.511-1.126,2.511-2.511S52.791,47.962,51.406,47.962z"></path><path fill="#e1e0d8" d="M49.158,43.029L49.158,43.029c-0.137,0.042,0.903,7.916,0.903,7.916c0.226,0.743,1.029,1.163,1.786,0.934h0c0.756-0.23,1.19-1.026,0.965-1.769C52.812,50.109,49.316,42.967,49.158,43.029z"></path><path fill="#472b29" d="M51.424,52.117c-0.688,0-1.323-0.439-1.53-1.121c-1.054-7.954-0.975-8.077-0.793-8.133c0.175-0.066,0.332-0.054,3.868,7.169c0.265,0.863-0.221,1.755-1.071,2.014C51.741,52.093,51.582,52.117,51.424,52.117z M49.354,43.658c0.125,1.379,0.561,4.843,0.881,7.265c0.192,0.624,0.896,0.986,1.562,0.789c0.666-0.203,1.046-0.899,0.849-1.552C51.62,48.069,50.03,44.883,49.354,43.658z M49.158,43.029h0.004H49.158z"></path><path fill="#e1e0d8" d="M51.406 49.092999999999996A1.38 1.38 0 1 0 51.406 51.853A1.38 1.38 0 1 0 51.406 49.092999999999996Z"></path><path fill="#472b29" d="M51.406 52.054c-.871 0-1.58-.709-1.58-1.581 0-.871.709-1.58 1.58-1.58.872 0 1.581.709 1.581 1.58C52.987 51.345 52.278 52.054 51.406 52.054zM51.406 49.293c-.65 0-1.18.529-1.18 1.18 0 .651.529 1.181 1.18 1.181.651 0 1.181-.529 1.181-1.181C52.587 49.823 52.057 49.293 51.406 49.293zM41.267 56.292c-.044 0-.086-.023-.109-.064-.033-.06-.012-.136.049-.17l.968-.541c.059-.034.136-.012.17.049.033.06.012.136-.049.17l-.968.541C41.309 56.288 41.288 56.292 41.267 56.292zM40.578 54.101c-.058 0-.109-.04-.122-.099-.015-.067.028-.134.096-.148l.899-.192c.066-.012.134.028.148.096s-.028.134-.096.148l-.899.192C40.595 54.1 40.587 54.101 40.578 54.101zM41.437 47.698c-.007 0-.014-.001-.021-.002l-1.015-.168c-.068-.011-.114-.075-.103-.144.011-.068.075-.111.144-.103l1.015.168c.068.011.114.075.103.144C41.55 47.655 41.498 47.698 41.437 47.698zM42.104 45.814c-.019 0-.038-.004-.056-.014l-.853-.427c-.062-.03-.087-.105-.056-.167.03-.062.107-.089.167-.056l.853.427c.062.03.087.105.056.167C42.194 45.789 42.15 45.814 42.104 45.814zM46.449 41.452c-.038 0-.075-.018-.1-.05l-.565-.75c-.042-.055-.031-.134.024-.175.056-.042.134-.029.175.024l.565.75c.042.055.031.134-.024.175C46.502 41.444 46.475 41.452 46.449 41.452zM48.285 40.621c-.051 0-.1-.031-.117-.083l-.325-.9c-.023-.064.01-.136.075-.159.063-.028.137.009.159.075l.325.9c.023.064-.01.136-.075.159C48.313 40.619 48.298 40.621 48.285 40.621zM61.416 56.314c-.021 0-.042-.005-.061-.016l-.968-.541c-.061-.034-.082-.11-.049-.17.034-.061.111-.083.17-.049l.968.541c.061.034.082.11.049.17C61.502 56.291 61.46 56.314 61.416 56.314zM62.105 54.123c-.011 0-.022-.001-.033-.005l-.824-.228c-.066-.018-.105-.087-.087-.153.018-.066.087-.111.153-.087l.824.228c.066.018.105.087.087.153C62.211 54.086 62.16 54.123 62.105 54.123zM61.226 47.723c-.061 0-.113-.043-.123-.104-.012-.068.034-.133.103-.144l1.035-.172c.066-.012.133.034.144.103.012.068-.034.133-.103.144l-1.035.172C61.24 47.722 61.233 47.723 61.226 47.723zM60.629 45.811c-.046 0-.09-.025-.111-.069-.031-.062-.007-.137.056-.167l.804-.402c.062-.032.138-.006.167.056.031.062.007.137-.056.167l-.804.402C60.667 45.807 60.647 45.811 60.629 45.811z"></path><g><path fill="#472b29" d="M56.286 41.45c-.025 0-.051-.008-.072-.023-.057-.039-.069-.117-.029-.174l.515-.727c.038-.057.118-.069.174-.029.057.039.069.117.029.174l-.515.727C56.364 41.431 56.325 41.45 56.286 41.45zM54.312 40.632c-.018 0-.035-.004-.053-.012-.062-.028-.09-.103-.061-.166l.411-.891c.028-.062.103-.088.166-.061.062.028.09.103.061.166l-.411.891C54.405 40.605 54.359 40.632 54.312 40.632z"></path></g></svg>