<svg xmlns="http://www.w3.org/2000/svg" viewBox="0 0 100 100" width="50px" height="50px"><path fill="#c7ede6" d="M87.34,56.71c1.135-2.154,1.785-4.605,1.785-7.21c0-6.621-4.159-12.257-10.001-14.478L79.125,35 c0-11.598-9.402-21-21-21c-9.784,0-17.981,6.701-20.313,15.757C36.336,29.271,34.763,29,33.125,29 c-7.692,0-14.023,5.793-14.89,13.252c-5.204,1.101-9.11,5.717-9.11,11.248c0,6.352,5.149,11.5,11.5,11.5 c0.177,0,0.352-0.012,0.526-0.021c-0.004,0.175-0.026,0.346-0.026,0.521c0,11.322,9.178,20.5,20.5,20.5 c6.438,0,12.175-2.973,15.934-7.613C59.737,80.611,62.766,82,66.125,82c4.65,0,8.674-2.65,10.666-6.518 C77.843,75.816,78.962,76,80.125,76c6.075,0,11-4.925,11-11C91.125,61.688,89.655,58.727,87.34,56.71z"></path><path fill="#fdfcef" d="M68.125,76.5c0,0-3.64,0-6.125,0s-4.5-2.015-4.5-4.5c0-2.333,1.782-4.229,4.055-4.455 C61.533,67.364,61.5,67.187,61.5,67c0-2.485,2.015-4.5,4.5-4.5c1.438,0,2.703,0.687,3.527,1.735C69.667,61.6,71.829,59.5,74.5,59.5 c2.761,0,5,2.238,5,5c0,0.446-0.077,0.87-0.187,1.282c0.642-0.776,1.6-1.282,2.687-1.282c1.781,0,3.234,1.335,3.455,3.055 C85.636,67.533,85.813,67.5,86,67.5c2.485,0,4.5,2.015,4.5,4.5s-2.015,4.5-4.5,4.5s-9.5,0-9.5,0h-5.375V77h-3V76.5z"></path><path fill="#472b29" d="M74.5,59c3.033,0,5.5,2.468,5.5,5.5v0.047C80.602,64.192,81.29,64,82,64 c1.831,0,3.411,1.262,3.858,3.005L86,67c2.757,0,5,2.243,5,5s-2.243,5-5,5H71.125c-0.276,0-0.5-0.224-0.5-0.5s0.224-0.5,0.5-0.5H86 c2.206,0,4-1.794,4-4s-1.794-4-4-4c-0.117,0-0.23,0.018-0.343,0.032l-0.141,0.02l-0.062,0.003c-0.246,0-0.462-0.185-0.495-0.437 C84.768,66.126,83.496,65,82,65c-0.885,0-1.723,0.401-2.301,1.101c-0.098,0.117-0.241,0.181-0.386,0.181l-0.229-0.056 c-0.209-0.107-0.314-0.345-0.254-0.572C78.946,65.218,79,64.852,79,64.5c0-2.481-2.019-4.5-4.5-4.5 c-2.381,0-4.347,1.872-4.474,4.263c-0.011,0.208-0.15,0.387-0.349,0.449l-0.152,0.024c-0.15,0-0.296-0.069-0.392-0.192 C68.362,63.563,67.221,63,66,63c-2.206,0-4,1.794-4,4c0,0.117,0.017,0.23,0.032,0.343l0.019,0.142 c0.016,0.134-0.022,0.268-0.106,0.373c-0.084,0.104-0.207,0.172-0.34,0.185C59.549,68.247,58,69.948,58,72c0,2.206,1.794,4,4,4 h6.125c0.276,0,0.5,0.224,0.5,0.5s-0.224,0.5-0.5,0.5H62c-2.757,0-5-2.243-5-5c0-2.397,1.689-4.413,4.003-4.878L61,67 c0-2.757,2.243-5,5-5c1.176,0,2.293,0.416,3.183,1.164C69.781,60.76,71.945,59,74.5,59z"></path><path fill="#472b29" d="M76 66c1.403 0 2.609.999 2.913 2.341C79.28 68.119 79.699 68 80.125 68c1.202 0 2.198.896 2.353 2.068C82.681 70.022 82.874 70 83.063 70c1.529 0 2.811 1.2 2.918 2.732C85.99 72.87 85.886 72.99 85.749 73H85.73c-.13 0-.24-.101-.249-.232-.089-1.271-1.151-2.268-2.419-2.268-.229 0-.47.041-.738.128l-.067.01-.156-.054L82 70.375c0-1.033-.841-1.875-1.875-1.875-.447 0-.885.168-1.231.473l-.166.063-.093-.019c-.088-.035-.148-.117-.155-.212C78.377 67.513 77.288 66.5 76 66.5c-.208 0-.425.034-.682.106l-.07.011c-.109 0-.208-.073-.239-.182-.038-.133.039-.271.172-.31C75.483 66.04 75.744 66 76 66zM62.117 67.5c1.326 0 2.508.896 2.874 2.182.038.133-.039.271-.172.309L64.75 70c-.109 0-.209-.072-.24-.182C64.205 68.747 63.221 68 62.117 68c-.117 0-.229.014-.342.028l-.035.003c-.121 0-.229-.092-.246-.217-.019-.137.077-.263.214-.281C61.842 67.516 61.978 67.5 62.117 67.5z"></path><path fill="#fff" d="M50.738 20h-9.905c-.276 0-.5-.224-.5-.5s.224-.5.5-.5h9.905c.276 0 .5.224.5.5S51.015 20 50.738 20zM53.833 20h-1c-.276 0-.5-.224-.5-.5s.224-.5.5-.5h1c.276 0 .5.224.5.5S54.11 20 53.833 20zM58.824 22h-8.991c-.276 0-.5-.224-.5-.5s.224-.5.5-.5h8.991c.276 0 .5.224.5.5S59.1 22 58.824 22zM47.833 22h-1c-.276 0-.5-.224-.5-.5s.224-.5.5-.5h1c.276 0 .5.224.5.5S48.11 22 47.833 22zM44.833 22h-2c-.276 0-.5-.224-.5-.5s.224-.5.5-.5h2c.276 0 .5.224.5.5S45.11 22 44.833 22zM50.833 24h-2c-.276 0-.5-.224-.5-.5s.224-.5.5-.5h2c.276 0 .5.224.5.5S51.109 24 50.833 24zM53.833 15c-.177 0-.823 0-1 0-.276 0-.5.224-.5.5s.224.5.5.5c.177 0 .823 0 1 0 .276 0 .5-.224.5-.5S54.109 15 53.833 15zM53.833 17c-.177 0-4.823 0-5 0-.276 0-.5.224-.5.5s.224.5.5.5c.177 0 4.823 0 5 0 .276 0 .5-.224.5-.5S54.109 17 53.833 17zM58.833 19c-.177 0-2.823 0-3 0-.276 0-.5.224-.5.5s.224.5.5.5c.177 0 2.823 0 3 0 .276 0 .5-.224.5-.5S59.109 19 58.833 19zM86.5 54h-10c-.276 0-.5-.224-.5-.5s.224-.5.5-.5h10c.276 0 .5.224.5.5S86.776 54 86.5 54zM90.5 54h-2c-.276 0-.5-.224-.5-.5s.224-.5.5-.5h2c.276 0 .5.224.5.5S90.776 54 90.5 54zM95.5 56h-10c-.276 0-.5-.224-.5-.5s.224-.5.5-.5h10c.276 0 .5.224.5.5S95.777 56 95.5 56zM83.5 56h-1c-.276 0-.5-.224-.5-.5s.224-.5.5-.5h1c.276 0 .5.224.5.5S83.776 56 83.5 56zM80.375 56H78.5c-.276 0-.5-.224-.5-.5s.224-.5.5-.5h1.875c.276 0 .5.224.5.5S80.651 56 80.375 56zM89.5 52h-5c-.276 0-.5-.224-.5-.5s.224-.5.5-.5h5c.276 0 .5.224.5.5S89.777 52 89.5 52zM86.5 58h-2c-.276 0-.5-.224-.5-.5s.224-.5.5-.5h2c.276 0 .5.224.5.5S86.776 58 86.5 58z"></path><path fill="#fdfcee" d="M30.977,72.3c-0.153,0-0.277-0.124-0.277-0.277V49.43l20.8-15.418L72.3,49.43v22.593 c0,0.153-0.124,0.277-0.277,0.277H30.977z"></path><path fill="#472b29" d="M51.5,34.884l20.1,14.898V71.6H31.4V49.782L51.5,34.884 M51.5,33.141L30,49.077v22.945 C30,72.563,30.438,73,30.977,73h41.046C72.563,73,73,72.563,73,72.022V49.077L51.5,33.141z"></path><path fill="#b3b2c3" d="M45.5,71.625V53.224c0-0.399,0.291-0.724,0.65-0.724h11.7c0.359,0,0.65,0.324,0.65,0.724v18.401"></path><path fill="#472b29" d="M46,71.625V53.224l0.062-0.178L46.15,53h11.7l0.088,0.046L58,53.224v18.401h1l0-18.401 c0-0.322-0.117-0.621-0.318-0.846c-0.2-0.224-0.499-0.379-0.832-0.378h-11.7c-0.333-0.001-0.632,0.153-0.832,0.378 C45.117,52.603,45,52.902,45,53.224v18.401H46L46,71.625z"></path><path fill="#ceccbe" d="M73.067 48.944L73.067 52.352 51.77 36.548 30.473 52.352 30.473 48.944 51.77 33.141z"></path><path fill="#ea5167" d="M28.333 44.089L51.75 26.156 75.167 44.089 75.167 50.986 51.75 33.054 28.333 50.986z"></path><path fill="#472b29" d="M28.333 44.089l.426.556L51.75 27.038l22.717 17.396v5.134L52.176 32.498c-.252-.193-.599-.193-.851 0L29.033 49.568l0-5.48H28.333l.426.556L28.333 44.089h-.7v6.897c0 .266.152.51.39.628.238.118.525.09.735-.072L51.75 33.935l22.991 17.607c.211.161.497.19.735.072.238-.118.39-.362.39-.628v-6.897c0-.218-.102-.424-.274-.556L52.176 25.6c-.252-.193-.599-.193-.851 0L27.908 43.533c-.173.132-.274.338-.274.556H28.333zM54.172 62.992h1.938c.276 0 .5-.224.5-.5 0-.276-.224-.5-.5-.5h-1.938c-.276 0-.5.224-.5.5C53.672 62.768 53.896 62.992 54.172 62.992"></path><path fill="#fdfcef" d="M30.5,52.5c0,0,1.567,0,3.5,0s3.5-1.567,3.5-3.5c0-1.78-1.334-3.234-3.055-3.455 C34.473,45.366,34.5,45.187,34.5,45c0-1.933-1.567-3.5-3.5-3.5c-1.032,0-1.95,0.455-2.59,1.165 c-0.384-1.808-1.987-3.165-3.91-3.165c-2.209,0-4,1.791-4,4c0,0.191,0.03,0.374,0.056,0.558C20.128,43.714,19.592,43.5,19,43.5 c-1.229,0-2.245,0.888-2.455,2.055C16.366,45.526,16.187,45.5,16,45.5c-1.933,0-3.5,1.567-3.5,3.5s1.567,3.5,3.5,3.5s7.5,0,7.5,0 V53h7V52.5z"></path><path fill="#472b29" d="M32.25 48C32.112 48 32 47.889 32 47.75c0-1.223.995-2.219 2.218-2.219.034.01.737 0 1.244.137.133.035.212.172.176.306-.036.134-.173.214-.306.177-.444-.12-1.1-.12-1.113-.119-.948 0-1.719.771-1.719 1.719C32.5 47.889 32.388 48 32.25 48zM25.5 52A.5.5 0 1 0 25.5 53 .5.5 0 1 0 25.5 52z"></path><path fill="#472b29" d="M34,53h-3.5c-0.276,0-0.5-0.224-0.5-0.5s0.224-0.5,0.5-0.5H34c1.654,0,3-1.346,3-3 c0-1.496-1.125-2.768-2.618-2.959c-0.134-0.018-0.255-0.088-0.336-0.195c-0.081-0.108-0.115-0.244-0.094-0.378 C33.975,45.314,34,45.16,34,45c0-1.654-1.346-3-3-3c-0.85,0-1.638,0.355-2.219,1c-0.125,0.139-0.321,0.197-0.5,0.148 c-0.182-0.049-0.321-0.195-0.36-0.379C27.58,41.164,26.141,40,24.5,40c-1.93,0-3.5,1.57-3.5,3.5c0,0.143,0.021,0.28,0.041,0.418 c0.029,0.203-0.063,0.438-0.242,0.539c-0.179,0.103-0.396,0.118-0.556-0.01C19.878,44.154,19.449,44,19,44 c-0.966,0-1.792,0.691-1.963,1.644c-0.048,0.267-0.296,0.446-0.569,0.405C16.314,46.025,16.16,46,16,46c-1.654,0-3,1.346-3,3 s1.346,3,3,3h7.5c0.276,0,0.5,0.224,0.5,0.5S23.776,53,23.5,53H16c-2.206,0-4-1.795-4-4s1.794-4,4-4l0.174,0.006 C16.588,43.82,17.711,43,19,43c0.349,0,0.689,0.061,1.011,0.18C20.176,40.848,22.126,39,24.5,39c1.831,0,3.466,1.127,4.153,2.774 C29.333,41.275,30.155,41,31,41c2.206,0,4,1.795,4,4l-0.004,0.143C36.739,45.59,38,47.17,38,49C38,51.205,36.206,53,34,53z"></path><path fill="#472b29" d="M28.5,52c-0.159,0-0.841,0-1,0c-0.276,0-0.5,0.224-0.5,0.5s0.224,0.5,0.5,0.5c0.159,0,0.841,0,1,0 c0.276,0,0.5-0.224,0.5-0.5S28.776,52,28.5,52z"></path><path fill="#fefdef" d="M71.489,25.887v3.018c0,0.211-0.16,0.377-0.364,0.377l-1.58,0.021v12.445 c0,0.144-0.08,0.271-0.204,0.339l-0.16,0.038l-0.218-0.075L64.6,38.655c-0.095-0.067-0.146-0.181-0.146-0.302v-9.051l-1.58-0.021 c-0.204,0-0.364-0.166-0.364-0.377v-3.018c0-0.211,0.16-0.377,0.364-0.377h8.25C71.329,25.51,71.489,25.676,71.489,25.887z"></path><path fill="#472b29" d="M66.507,39.506l-1.608-1.251l-0.009-0.007l-0.075,0.106h0.14l-0.065-0.106l-0.075,0.106h0.14v-9.544 l-2.073-0.028h-0.007v0.141l0.102-0.098l-0.102-0.043v0.141l0.102-0.098l-0.083,0.08h0.117l-0.035-0.08l-0.083,0.08h0.117v-3.018 h-0.117l0.082,0.08l0.035-0.08h-0.117l0.082,0.08l-0.102-0.098l0,0.141l0.102-0.043l-0.102-0.098l0,0.141h8.25v-0.141l-0.102,0.098 l0.102,0.043v-0.141l-0.102,0.098l0.082-0.08l-0.117,0l0.035,0.08l0.082-0.08l-0.117,0v3.018h0.117l-0.083-0.08l-0.035,0.08h0.117 l-0.083-0.08l0.102,0.098v-0.141l-0.102,0.043l0.102,0.098v-0.141h-0.009l-2.071,0.028v12.939h0.112l-0.055-0.1l-0.057,0.1h0.112 l-0.055-0.1l0.239,0.439L69.226,41.6l-0.019,0.004l-0.002-0.001l-0.764-0.594c-0.218-0.17-0.532-0.13-0.702,0.088 c-0.17,0.218-0.13,0.532,0.088,0.702l0.895,0.696l0.297,0.103l0.138,0.047l0.301-0.072l0.065-0.016l0.059-0.032 c0.277-0.15,0.464-0.445,0.464-0.778V29.796l1.086-0.015l-0.007-0.5v0.5c0.239,0.001,0.464-0.101,0.618-0.262 c0.156-0.161,0.246-0.382,0.246-0.615v-3.018c0-0.233-0.09-0.454-0.246-0.615c-0.154-0.161-0.379-0.263-0.618-0.262h-8.25 c-0.239-0.001-0.464,0.101-0.618,0.262c-0.156,0.161-0.246,0.382-0.246,0.615v3.018c0,0.233,0.09,0.454,0.246,0.615 c0.154,0.161,0.379,0.263,0.618,0.262v-0.5l-0.007,0.5l1.086,0.015l0,8.558c-0.001,0.257,0.11,0.534,0.356,0.709l0.29-0.407 l-0.307,0.395l1.6,1.245c0.218,0.17,0.532,0.13,0.702-0.088C66.764,39.99,66.725,39.675,66.507,39.506L66.507,39.506z"></path></svg>